# xmcd
#
# Track frame offsets:
#	150
#	17568
#	35160
#	55062
#	74386
#	95025
#	111645
#	131380
#	158844
#	172089
#
# Disc length: 3097 seconds
#
# Revision: 2
# Processed by: cddbd v1.5.2PL0 Copyright (c) Steve Scherf et al.
# Submitted via: Jack! The Knife
#
DISCID=8d0c170a
DTITLE=Judas Priest - Angel of Retribution
DYEAR=2005
DGENRE=Heavy Metal
TTITLE0=Judas Rising
TTITLE1=Deal With The Devil
TTITLE2=Revolution
TTITLE3=Worth Fighting For
TTITLE4=Demonizer
TTITLE5=Wheels of Fire
TTITLE6=Angel
TTITLE7=Hell Rider
TTITLE8=Eulogy
TTITLE9=Lochness
EXTD=
EXTT0=
EXTT1=
EXTT2=
EXTT3=
EXTT4=
EXTT5=
EXTT6=
EXTT7=
EXTT8=
EXTT9=
PLAYORDER=
